<svg width="158" height="47" viewBox="0 0 158 47" fill="none" xmlns="http://www.w3.org/2000/svg">
<path d="M0.694545 12.6354L3.39724 31.5404C3.90781 35.1116 8.32949 36.5714 10.9115 34.021L12.129 32.8184L10.4473 21.0546C10.1094 18.6914 12.1586 16.6673 14.5511 17.001L26.461 18.6622L27.3482 17.7857C29.9303 15.2353 28.4525 10.8679 24.8367 10.3636L5.69731 7.694C2.78072 7.2872 0.282705 9.75459 0.694545 12.6354Z" fill="#C5E2DE"/>
<path fill-rule="evenodd" clip-rule="evenodd" d="M26.4609 18.6624L12.1289 32.8185L12.6642 36.5628C13.083 39.4923 16.7103 40.6897 18.8282 38.5977L32.3115 25.2797C34.4297 23.1874 33.2174 19.6048 30.2514 19.1911L26.4609 18.6624Z" fill="#00826F"/>
<path d="M14.5511 17.001C12.1586 16.6673 10.1094 18.6914 10.4473 21.0546L12.1291 32.8184L26.461 18.6622L14.5511 17.001Z" fill="#00826F"/>
<path d="M46.4484 33.9279H48.99L53.8522 17.3525H53.9073L58.7419 33.9279H61.2558L67.0019 14.3689H64.571L60.0402 30.6128H59.985L55.2058 14.3689H52.6089L47.802 30.6128H47.7468L43.299 14.3689H40.73L46.4484 33.9279Z" fill="#064946"/>
<path d="M66.8984 27.4634C66.8984 31.4968 69.8268 34.2593 73.8048 34.2593C77.783 34.2593 80.7112 31.4968 80.7112 27.4634C80.7112 23.4301 77.783 20.6675 73.8048 20.6675C69.8268 20.6675 66.8984 23.4301 66.8984 27.4634ZM69.2189 27.4634C69.2189 24.7562 71.0146 22.6565 73.8048 22.6565C76.595 22.6565 78.3908 24.7562 78.3908 27.4634C78.3908 30.1708 76.595 32.2703 73.8048 32.2703C71.0146 32.2703 69.2189 30.1708 69.2189 27.4634Z" fill="#064946"/>
<path d="M84.047 33.9279H86.2018V27.6292C86.2018 24.6732 87.3622 22.8223 89.9865 22.8223C90.3733 22.8223 90.7878 22.8775 91.1469 22.9882L91.285 20.8056C90.981 20.6951 90.6773 20.6675 90.401 20.6675C88.2739 20.6675 86.6714 21.8554 86.0913 23.1261H86.036C86.036 22.4079 85.9809 21.6896 85.9809 20.999H83.9365C83.9365 21.8554 84.047 22.8775 84.047 24.0655V33.9279Z" fill="#064946"/>
<path d="M93.7593 33.9281H95.9141V27.1322L102.323 33.9281H105.5L98.6215 26.8835L104.865 20.9992H101.799L95.9141 26.69V13.043H93.7593V33.9281Z" fill="#064946"/>
<path d="M107.959 33.9279H110.279V25.1428H119.396V22.9882H110.279V16.5237H120.087V14.3689H107.959V33.9279Z" fill="#064946"/>
<path d="M123.116 33.9281H125.271V13.043H123.116V33.9281Z" fill="#064946"/>
<path d="M139.477 30.3088C138.455 31.6072 137.212 32.2703 135.361 32.2703C133.013 32.2703 131.3 30.3641 131.134 28.1265H141.577V27.4357C141.577 23.1538 139.09 20.6675 135.444 20.6675C131.631 20.6675 128.813 23.4577 128.813 27.4634C128.813 31.2205 131.3 34.2593 135.361 34.2593C137.764 34.2593 139.587 33.5411 141.107 31.5796L139.477 30.3088ZM131.134 26.3031C131.41 24.1208 132.985 22.6565 135.361 22.6565C137.737 22.6565 139.173 24.1208 139.256 26.3031H131.134Z" fill="#064946"/>
<path d="M142.949 33.9279H145.628L149.662 28.3475L153.751 33.9279H156.596L151.264 26.9662L155.712 20.999H153.087L149.855 25.6403L146.43 20.999H143.612L148.253 26.9662L142.949 33.9279Z" fill="#064946"/>
<path fill-rule="evenodd" clip-rule="evenodd" d="M93.309 12.5928H96.3639V25.6287L101.616 20.549H105.998L99.2632 26.8966L106.569 34.3779H102.129L96.3639 28.2648V34.3779H93.309V12.5928ZM96.3281 26.9153L102.517 33.4779H104.432L97.9794 26.8698L103.731 21.449H101.98L96.3281 26.9153ZM95.4639 13.4928H94.209V33.4779H95.4639V13.4928ZM122.666 12.5928H125.721V34.3779H122.666V12.5928ZM123.566 13.4928V33.4779H124.821V13.4928H123.566ZM40.1294 13.9188H43.6423L47.7902 29.0672L52.2726 13.9188H55.5423L60.0018 29.0755L64.2291 13.9188H67.603L61.5926 34.3779H58.4043L53.8785 18.8609L49.3269 34.3779H46.111L40.1294 13.9188ZM41.3302 14.8188L46.7856 33.4779H48.6528L53.5151 16.9024H54.2448L59.0793 33.4779H60.9189L66.4006 14.8188H64.9125L60.3819 31.0627H59.6484L54.8689 14.8188H52.9449L48.138 31.0627H47.4034L42.9556 14.8188H41.3302ZM107.509 13.9188H120.537V16.9736H110.729V22.5381H119.846V25.5927H110.729V34.3779H107.509V13.9188ZM108.409 14.8188V33.4779H109.829V24.6927H118.946V23.4381H109.829V16.0736H119.637V14.8188H108.409ZM66.4483 27.4634C66.4483 23.1695 69.5902 20.2175 73.8047 20.2175C78.0192 20.2175 81.1611 23.1695 81.1611 27.4634C81.1611 31.7573 78.0192 34.7093 73.8047 34.7093C69.5902 34.7093 66.4483 31.7573 66.4483 27.4634ZM73.8047 21.1175C70.0629 21.1175 67.3483 23.6906 67.3483 27.4634C67.3483 31.2362 70.0629 33.8093 73.8047 33.8093C77.5464 33.8093 80.2611 31.2362 80.2611 27.4634C80.2611 23.6906 77.5464 21.1175 73.8047 21.1175ZM86.4499 21.8251C87.3378 20.8974 88.7312 20.2175 90.4009 20.2175C90.7056 20.2175 91.0671 20.2476 91.4386 20.3827L91.7552 20.4978L91.5599 23.586L91.0145 23.4181C90.7038 23.3225 90.3345 23.2723 89.9865 23.2723C88.7924 23.2723 87.9909 23.6859 87.4712 24.3856C86.9343 25.1083 86.6517 26.1987 86.6517 27.6292V34.3779H83.5969V24.0654C83.5969 23.4847 83.5699 22.9427 83.5422 22.4322C83.54 22.3898 83.5377 22.3475 83.5355 22.3054C83.5105 21.8456 83.4864 21.4051 83.4864 20.999V20.549H86.4308V20.999C86.4308 21.268 86.4393 21.5424 86.4499 21.8251ZM90.4009 21.1175C88.4364 21.1175 87.0021 22.2144 86.5005 23.313L86.3804 23.5761H85.5859V23.1261C85.5859 22.7771 85.5726 22.4266 85.5587 22.0697L85.5582 22.0551C85.5504 21.8546 85.5425 21.6517 85.5371 21.449H84.3952C84.404 21.7028 84.4186 21.9726 84.4344 22.2618C84.4366 22.302 84.4389 22.3426 84.4411 22.3836C84.4688 22.8952 84.4969 23.4584 84.4969 24.0654V33.4779H85.7517V27.6292C85.7517 26.1037 86.0492 24.7906 86.7487 23.849C87.4653 22.8842 88.5561 22.3723 89.9865 22.3723C90.2288 22.3723 90.4824 22.3918 90.731 22.4319L90.8124 21.1471C90.6768 21.1253 90.5391 21.1175 90.4009 21.1175ZM128.363 27.4634C128.363 23.2154 131.377 20.2175 135.443 20.2175C137.373 20.2175 139.032 20.8779 140.207 22.1392C141.379 23.3974 142.026 25.2084 142.026 27.4357V28.5765H131.645C131.986 30.3938 133.451 31.8203 135.361 31.8203C136.231 31.8203 136.934 31.6648 137.532 31.3723C138.129 31.0798 138.645 30.6381 139.123 30.0304L139.4 29.6785L141.737 31.5006L141.463 31.8552C140.664 32.8863 139.772 33.6068 138.75 34.0656C137.73 34.5232 136.607 34.7093 135.361 34.7093C133.211 34.7093 131.451 33.9015 130.233 32.5747C129.018 31.2522 128.363 29.4402 128.363 27.4634ZM135.443 21.1175C131.886 21.1175 129.263 23.7 129.263 27.4634C129.263 29.2436 129.852 30.8296 130.896 31.9659C131.935 33.0976 133.449 33.8093 135.361 33.8093C136.518 33.8093 137.508 33.6365 138.381 33.2445C139.138 32.9046 139.826 32.3916 140.467 31.6513L139.542 30.9306C139.07 31.4585 138.542 31.8797 137.927 32.1805C137.185 32.5441 136.341 32.7203 135.361 32.7203C132.74 32.7203 130.865 30.5936 130.685 28.1598L130.649 27.6765H141.126V27.4357C141.126 25.381 140.531 23.8078 139.548 22.7526C138.568 21.7001 137.161 21.1175 135.443 21.1175ZM142.691 20.549H146.656L149.844 24.868L152.852 20.549H156.608L151.828 26.9625L157.507 34.3779H153.522L149.664 29.1122L145.858 34.3779H142.04L147.685 26.9691L142.691 20.549ZM144.532 21.449L148.82 26.9632L143.857 33.4779H145.398L149.659 27.5826L153.978 33.4779H155.684L150.7 26.9697L154.815 21.449H153.322L149.865 26.4122L146.202 21.449H144.532ZM70.796 24.3501C70.0841 25.1205 69.6687 26.2088 69.6687 27.4634C69.6687 28.718 70.0841 29.8063 70.796 30.5767C71.5043 31.3433 72.5289 31.8203 73.8047 31.8203C75.0804 31.8203 76.1051 31.3433 76.8134 30.5767C77.5253 29.8063 77.9406 28.718 77.9406 27.4634C77.9406 26.2088 77.5253 25.1205 76.8134 24.3501C76.1051 23.5835 75.0804 23.1065 73.8047 23.1065C72.5289 23.1065 71.5043 23.5835 70.796 24.3501ZM70.1349 23.7394C71.0219 22.7793 72.2902 22.2065 73.8047 22.2065C75.3192 22.2065 76.5875 22.7793 77.4744 23.7394C78.358 24.6957 78.8406 26.0106 78.8406 27.4634C78.8406 28.9162 78.358 30.2313 77.4744 31.1874C76.5875 32.1474 75.3192 32.7203 73.8047 32.7203C72.2902 32.7203 71.0219 32.1474 70.1349 31.1874C69.2514 30.2313 68.7687 28.9162 68.7687 27.4634C68.7687 26.0106 69.2514 24.6957 70.1349 23.7394ZM131.673 25.8531H138.764C138.651 25.0746 138.333 24.443 137.857 23.9862C137.289 23.4417 136.454 23.1065 135.361 23.1065C134.268 23.1065 133.39 23.4417 132.757 23.9991C132.235 24.459 131.86 25.0881 131.673 25.8531ZM132.162 23.3238C132.98 22.6034 134.078 22.2065 135.361 22.2065C136.643 22.2065 137.715 22.6034 138.48 23.3364C139.244 24.0693 139.66 25.0986 139.706 26.286L139.723 26.7531H130.623L130.687 26.2466C130.838 25.0604 131.345 24.0436 132.162 23.3238Z" fill="#064946"/>
</svg>
